<svg width="32" height="32" viewBox="0 0 32 32" fill="none" xmlns="http://www.w3.org/2000/svg">
  <rect width="32" height="32" rx="7" fill="url(#fg)"/>
  <line x1="16" y1="16" x2="16" y2="6.4"  stroke="white" stroke-width="1.1" stroke-opacity="0.45" stroke-linecap="round"/>
  <line x1="16" y1="16" x2="24.3" y2="11.2" stroke="white" stroke-width="1.1" stroke-opacity="0.45" stroke-linecap="round"/>
  <line x1="16" y1="16" x2="24.3" y2="20.8" stroke="white" stroke-width="1.1" stroke-opacity="0.45" stroke-linecap="round"/>
  <line x1="16" y1="16" x2="16" y2="25.6" stroke="white" stroke-width="1.1" stroke-opacity="0.45" stroke-linecap="round"/>
  <line x1="16" y1="16" x2="7.7" y2="20.8" stroke="white" stroke-width="1.1" stroke-opacity="0.45" stroke-linecap="round"/>
  <line x1="16" y1="16" x2="7.7" y2="11.2" stroke="white" stroke-width="1.1" stroke-opacity="0.45" stroke-linecap="round"/>
  <polygon points="16,6.4 24.3,11.2 24.3,20.8 16,25.6 7.7,20.8 7.7,11.2" fill="none" stroke="white" stroke-width="0.6" stroke-opacity="0.2"/>
  <circle cx="16" cy="6.4" r="1.75" fill="white" fill-opacity="0.9"/>
  <circle cx="24.3" cy="11.2" r="1.75" fill="white" fill-opacity="0.8"/>
  <circle cx="24.3" cy="20.8" r="1.75" fill="white" fill-opacity="0.8"/>
  <circle cx="16" cy="25.6" r="1.75" fill="white" fill-opacity="0.9"/>
  <circle cx="7.7" cy="20.8" r="1.75" fill="white" fill-opacity="0.8"/>
  <circle cx="7.7" cy="11.2" r="1.75" fill="white" fill-opacity="0.8"/>
  <circle cx="16" cy="16" r="3.2" fill="white"/>
  <defs>
    <linearGradient id="fg" x1="0" y1="0" x2="32" y2="32" gradientUnits="userSpaceOnUse">
      <stop offset="0%" stop-color="#4338ca"/>
      <stop offset="100%" stop-color="#7c3aed"/>
    </linearGradient>
  </defs>
</svg>
